PathFileType	4	(X/Y/Z)	S1_nor_med_right & left.trc
DataRate	CameraRate	NumFrames	NumMarkers	Units	OrigDataRate	OrigDataStartFrame	OrigNumFrames
250.00	250.00	8	18	mm	250.00	8397	16793
Frame#	Time	c7	r_should	l_should	clavicle	r_upa	r_elb_l	r_elb_m	r_low	r_wri_l	r_wri_m	r_met	l_upa	l_elb_l	l_elb_m	l_low	l_wri_l	l_wri_m	l_met
	X1	Y1	Z1	X2	Y2	Z2	X3	Y3	Z3	X4	Y4	Z4	X5	Y5	Z5	X6	Y6	Z6	X7	Y7	Z7	X8	Y8	Z8	X9	Y9	Z9	X10	Y10	Z10	X11	Y11	Z11	X12	Y12	Z12	X13	Y13	Z13	X14	Y14	Z14	X15	Y15	Z15	X16	Y16	Z16	X17	Y17	Z17	X18	Y18	Z18
8397	33.58400	892.33704	1419.42505	121.94187	962.34320	1349.05457	292.72021	943.49969	1366.23804	-77.24358	1028.79651	1298.72131	100.11387	955.15356	1138.28125	338.28146	977.39227	1052.27563	343.64319	925.42798	1022.02429	263.79071	1019.90698	929.61926	309.27374	1127.72888	907.09454	313.65662	1102.09814	892.09045	243.21599	1164.29382	834.31885	322.08679	948.95386	1141.31482	-117.08402	960.66187	1055.26038	-129.22945	897.95367	1030.57129	-49.74160	911.64484	913.80115	-141.76784	983.39191	819.96399	-117.46995	913.72131	811.14404	-143.27682	1000.80573	745.84650	-138.75450
8398	33.58800	892.32196	1419.44043	121.85859	962.09906	1349.18811	292.66199	943.58502	1366.21790	-77.28233	1028.78442	1298.71179	100.13106	954.77417	1138.47913	338.37573	976.89130	1052.68591	343.70541	925.41162	1022.09235	264.13208	1020.35773	930.43170	309.16992	1128.18237	908.86346	313.54840	1102.79626	893.84088	243.16597	1165.57458	836.43658	321.82785	948.96436	1141.29822	-117.11135	960.65973	1055.23779	-129.24445	897.89783	1030.56641	-49.79324	911.63507	913.78204	-141.78568	983.37695	819.95526	-117.42609	913.72504	811.12592	-143.27847	1000.79645	745.81836	-138.67958
8399	33.59200	892.30750	1419.45569	121.77749	961.86090	1349.32031	292.60138	943.68091	1366.20154	-77.31862	1028.78113	1298.70862	100.15220	954.39844	1138.67041	338.45001	976.39569	1053.09753	343.76764	925.15912	1022.28308	264.29803	1020.68781	931.30939	309.12888	1128.63184	910.63763	313.42694	1103.36951	895.52594	243.12456	1166.84668	838.58777	321.57718	948.97327	1141.28308	-117.14006	960.65460	1055.22241	-129.26277	897.84210	1030.56335	-49.84166	911.62183	913.76025	-141.80074	983.36505	819.95233	-117.38316	913.72406	811.10089	-143.27058	1000.78772	745.80188	-138.59685
8400	33.59600	892.29492	1419.47290	121.69454	961.62292	1349.45190	292.53595	943.78217	1366.18726	-77.35406	1028.78308	1298.70386	100.18909	954.04150	1138.84387	338.50781	975.89648	1053.51953	343.83279	924.63947	1022.61005	264.28406	1020.99231	932.19849	309.09631	1129.09729	912.42743	313.29745	1103.91785	897.23901	243.05891	1168.21228	840.68988	321.25403	948.99207	1141.26697	-117.16944	960.64172	1055.20251	-129.28358	897.78387	1030.56555	-49.90074	911.61475	913.73926	-141.81975	983.35571	819.95392	-117.34231	913.72003	811.07941	-143.26939	1000.77234	745.78131	-138.50218
8401	33.60000	892.29022	1419.49084	121.61095	961.38519	1349.57898	292.47760	943.89832	1366.15955	-77.38645	1028.78467	1298.69250	100.22920	953.69159	1139.01733	338.54993	975.40417	1053.96436	343.89160	924.26617	1022.85376	264.18997	1021.30127	933.11938	309.06689	1129.56140	914.22845	313.16470	1104.45667	898.93982	242.99968	1169.57849	842.83691	320.93524	949.01550	1141.24524	-117.20236	960.63611	1055.18250	-129.30103	897.72961	1030.56409	-49.95663	911.60626	913.71686	-141.83775	983.34094	819.94238	-117.30355	913.72241	811.05890	-143.26875	1000.76056	745.76605	-138.41304
8402	33.60400	892.28723	1419.50684	121.52771	961.15765	1349.71118	292.41403	944.02588	1366.12842	-77.41117	1028.78870	1298.67419	100.26948	953.33569	1139.18921	338.58978	974.93854	1054.42566	343.95374	924.85321	1022.61053	264.46808	1022.50586	933.63123	308.53604	1130.03394	916.05225	313.02380	1104.98999	900.67432	242.93382	1170.92188	845.04321	320.62677	949.03955	1141.21741	-117.23271	960.64093	1055.15417	-129.31938	897.68109	1030.56116	-50.01104	911.59882	913.69794	-141.86153	983.32538	819.92755	-117.26166	913.72339	811.04016	-143.26506	1000.74127	745.74219	-138.32271
8403	33.60800	892.28680	1419.52319	121.44263	960.92889	1349.84021	292.35144	944.16687	1366.09045	-77.43763	1028.79895	1298.64148	100.32408	952.99286	1139.34583	338.62646	974.49396	1054.87036	344.00604	924.74280	1022.72034	264.59055	1024.79004	933.65216	307.40469	1130.47595	917.91119	312.88406	1105.49561	902.36334	242.85152	1172.27173	847.28833	320.30170	949.07080	1141.18237	-117.27033	960.64374	1055.12280	-129.34755	897.63336	1030.55505	-50.07472	911.58984	913.67749	-141.88649	983.30701	819.90155	-117.22268	913.72095	811.02094	-143.27083	1000.72089	745.71301	-138.24088
8404	33.61200	892.28442	1419.53821	121.34727	960.70734	1349.97620	292.28705	944.31946	1366.05115	-77.46690	1028.81165	1298.61194	100.38971	952.65759	1139.49805	338.64478	974.05975	1055.30945	344.02890	924.66644	1022.88483	264.78860	1025.59827	934.35864	307.11832	1130.91956	919.80426	312.73990	1106.01257	904.05750	242.71396	1173.64502	849.56439	319.95743	949.11163	1141.15125	-117.31525	960.65057	1055.08777	-129.37901	897.58636	1030.54932	-50.14535	911.58704	913.64984	-141.91327	983.29034	819.86957	-117.19093	913.71826	810.99664	-143.27611	1000.69940	745.67670	-138.16684
